<svg width="165" height="357" viewBox="0 0 165 357" fill="none" xmlns="http://www.w3.org/2000/svg">
<path d="M-13.8252 163.921L-3.02396 0H-24.6265L-13.8252 163.921Z" fill="#E55733"/>
<path d="M-13.8252 192.429L-3.02396 356.35H-24.6265L-13.8252 192.429Z" fill="#E55733"/>
<path d="M-13.8252 192.429L-24.6265 356.35H-3.02396L-13.8252 192.429Z" fill="#E55733"/>
<path d="M-13.8252 163.921L-24.6265 0H-3.02396L-13.8252 163.921Z" fill="#E55733"/>
<path d="M0.428741 178.175L164.35 188.976V167.374L0.428741 178.175Z" fill="#E55733"/>
<path d="M-28.0792 178.175L-192 188.976L-192 167.374L-28.0792 178.175Z" fill="#E55733"/>
<path d="M-28.0792 178.175L-192 167.374L-192 188.976L-28.0792 178.175Z" fill="#E55733"/>
<path d="M0.428741 178.175L164.35 167.374V188.976L0.428741 178.175Z" fill="#E55733"/>
<path d="M-23.9043 168.096L-132.176 44.5485L-147.451 59.8238L-23.9043 168.096Z" fill="#E55733"/>
<path d="M-3.74614 188.254L119.801 296.526L104.526 311.801L-3.74614 188.254Z" fill="#E55733"/>
<path d="M-3.74614 188.254L104.526 311.801L119.801 296.526L-3.74614 188.254Z" fill="#E55733"/>
<path d="M-23.9043 168.096L-147.451 59.8238L-132.176 44.5485L-23.9043 168.096Z" fill="#E55733"/>
<path d="M-3.74614 168.096L119.801 59.8239L104.526 44.5486L-3.74614 168.096Z" fill="#E55733"/>
<path d="M-23.9043 188.254L-132.176 311.801L-147.451 296.526L-23.9043 188.254Z" fill="#E55733"/>
<path d="M-23.9043 188.254L-147.451 296.526L-132.176 311.801L-23.9043 188.254Z" fill="#E55733"/>
<path d="M-3.74614 168.096L104.526 44.5486L119.801 59.8239L-3.74614 168.096Z" fill="#E55733"/>
<path d="M-10.136 164.406L42.723 8.86671L21.8566 3.27556L-10.136 164.406Z" fill="#E55733"/>
<path d="M-17.5145 191.943L-49.507 353.074L-70.3735 347.483L-17.5145 191.943Z" fill="#E55733"/>
<path d="M-17.5145 191.943L-70.3735 347.483L-49.507 353.074L-17.5145 191.943Z" fill="#E55733"/>
<path d="M-10.136 164.406L21.8566 3.27556L42.723 8.86671L-10.136 164.406Z" fill="#E55733"/>
<path d="M-0.0569458 181.864L155.483 234.723L161.074 213.857L-0.0569458 181.864Z" fill="#E55733"/>
<path d="M-27.5935 174.486L-188.724 142.493L-183.133 121.626L-27.5935 174.486Z" fill="#E55733"/>
<path d="M-27.5935 174.486L-183.133 121.626L-188.724 142.493L-27.5935 174.486Z" fill="#E55733"/>
<path d="M-0.0569458 181.864L161.074 213.857L155.483 234.723L-0.0569458 181.864Z" fill="#E55733"/>
<path d="M-20.9522 165.83L-93.5584 18.4703L-112.267 29.2716L-20.9522 165.83Z" fill="#E55733"/>
<path d="M-6.69823 190.519L84.6163 327.078L65.908 337.879L-6.69823 190.519Z" fill="#E55733"/>
<path d="M-6.69823 190.519L65.908 337.879L84.6163 327.078L-6.69823 190.519Z" fill="#E55733"/>
<path d="M-20.9522 165.83L-112.267 29.2716L-93.5584 18.4703L-20.9522 165.83Z" fill="#E55733"/>
<path d="M-1.48093 171.048L145.879 98.4416L135.078 79.7332L-1.48093 171.048Z" fill="#E55733"/>
<path d="M-26.1695 185.302L-162.728 276.616L-173.53 257.908L-26.1695 185.302Z" fill="#E55733"/>
<path d="M-26.1695 185.302L-173.53 257.908L-162.728 276.616L-26.1695 185.302Z" fill="#E55733"/>
<path d="M-1.48093 171.048L135.078 79.7332L145.879 98.4416L-1.48093 171.048Z" fill="#E55733"/>
<path d="M-6.69823 165.83L84.6163 29.2715L65.908 18.4702L-6.69823 165.83Z" fill="#E55733"/>
<path d="M-20.9522 190.519L-93.5584 337.879L-112.267 327.078L-20.9522 190.519Z" fill="#E55733"/>
<path d="M-20.9522 190.519L-112.267 327.078L-93.5584 337.879L-20.9522 190.519Z" fill="#E55733"/>
<path d="M-6.69823 165.83L65.908 18.4702L84.6163 29.2715L-6.69823 165.83Z" fill="#E55733"/>
<path d="M-1.48091 185.302L135.078 276.616L145.879 257.908L-1.48091 185.302Z" fill="#E55733"/>
<path d="M-26.1695 171.048L-173.53 98.4416L-162.728 79.7332L-26.1695 171.048Z" fill="#E55733"/>
<path d="M-26.1695 171.048L-162.728 79.7332L-173.53 98.4416L-26.1695 171.048Z" fill="#E55733"/>
<path d="M-1.48091 185.302L145.879 257.908L135.078 276.616L-1.48091 185.302Z" fill="#E55733"/>
<path d="M-17.5145 164.407L-49.507 3.27565L-70.3735 8.86679L-17.5145 164.407Z" fill="#E55733"/>
<path d="M-10.136 191.943L42.7231 347.483L21.8566 353.074L-10.136 191.943Z" fill="#E55733"/>
<path d="M-10.136 191.943L21.8566 353.074L42.7231 347.483L-10.136 191.943Z" fill="#E55733"/>
<path d="M-17.5145 164.407L-70.3735 8.86679L-49.507 3.27565L-17.5145 164.407Z" fill="#E55733"/>
<path d="M-0.0569458 174.486L161.074 142.493L155.483 121.626L-0.0569458 174.486Z" fill="#E55733"/>
<path d="M-27.5935 181.864L-183.133 234.723L-188.724 213.857L-27.5935 181.864Z" fill="#E55733"/>
<path d="M-27.5935 181.864L-188.724 213.857L-183.133 234.723L-27.5935 181.864Z" fill="#E55733"/>
<path d="M-0.0569458 174.486L155.483 121.626L161.074 142.493L-0.0569458 174.486Z" fill="#E55733"/>
</svg>
