<svg width="245" height="618" viewBox="0 0 245 618" fill="none" xmlns="http://www.w3.org/2000/svg">
<path d="M-87.2355 550.809C-86.5469 531.231 -88.9002 509.051 -98.3941 488.738C-122.983 436.129 -186.158 415.967 -186.158 415.967C-186.158 415.967 -209.467 481.101 -184.878 533.711C-166.052 573.991 -124.605 595.25 -106.213 603.002L-107.876 607.576L-89.0801 614.411L-87.4116 609.822C-68.1682 615.707 -23.0017 625.835 17.0959 607.148C69.7323 582.618 93.7016 517.724 93.7016 517.724C93.7016 517.724 32.3303 492.601 -20.3062 517.131C-40.2915 526.445 -56.1442 541.578 -68.1213 556.768L-37.0696 471.367C-17.8262 477.253 27.3403 487.38 67.4378 468.694C120.074 444.163 144.044 379.269 144.044 379.269C144.044 379.269 82.6723 354.146 30.0358 378.676C10.0505 387.99 -5.80221 403.123 -17.7793 418.313L13.2724 332.912C32.5159 338.798 77.6823 348.926 117.78 330.239C170.416 305.709 194.386 240.814 194.386 240.814C194.386 240.814 133.014 215.691 80.3779 240.221C60.3925 249.535 44.5399 264.668 32.5628 279.858L63.6145 194.457C82.8579 200.343 128.024 210.471 168.122 191.784C220.758 167.254 244.728 102.359 244.728 102.359C244.728 102.359 183.356 77.2364 130.72 101.767C110.735 111.08 94.8819 126.213 82.9048 141.404L115.947 50.5277L97.1511 43.6935L63.7906 135.444C64.4792 115.867 62.1259 93.6868 52.632 73.3739C28.0434 20.7647 -35.1317 0.602673 -35.1317 0.602673C-35.1317 0.602673 -58.4408 65.7372 -33.8522 118.346C-15.0258 158.627 26.4214 179.886 44.8131 187.638L13.4485 273.899C14.1371 254.322 11.7838 232.142 2.28992 211.829C-22.2987 159.22 -85.4738 139.058 -85.4738 139.058C-85.4738 139.058 -108.783 204.192 -84.1943 256.801C-65.3678 297.082 -23.9207 318.341 -5.52899 326.093L-36.8936 412.354C-36.205 392.777 -38.5582 370.597 -48.0521 350.284C-72.6407 297.674 -135.816 277.512 -135.816 277.512C-135.816 277.512 -159.125 342.647 -134.536 395.256C-115.71 435.537 -74.2628 456.796 -55.8711 464.548L-87.2355 550.809Z" fill="#43A363"/>
</svg>
